<?xml version="1.0" encoding="UTF-8"?>
<svg id="Capa_2" data-name="Capa 2" xmlns="http://www.w3.org/2000/svg" viewBox="0 0 16.77 16.77">
  <defs>
    <style>
      .cls-1 {
        fill: #a8975b;
        stroke-width: 0px;
      }
    </style>
  </defs>
  <g id="Capa_1-2" data-name="Capa 1">
    <path class="cls-1" d="m11.21,8.38l4.97-4.97c.78-.78.78-2.05,0-2.83-.78-.78-2.05-.78-2.83,0l-4.97,4.97L3.41.59C2.63-.2,1.37-.2.59.59-.2,1.37-.2,2.63.59,3.41l4.97,4.97L.59,13.35c-.78.78-.78,2.05,0,2.83.39.39.9.59,1.41.59s1.02-.2,1.41-.59l4.97-4.97,4.97,4.97c.39.39.9.59,1.41.59s1.02-.2,1.41-.59c.78-.78.78-2.05,0-2.83l-4.97-4.97Z"/>
  </g>
</svg>